<svg width="73" height="59" viewBox="0 0 73 59" fill="none" xmlns="http://www.w3.org/2000/svg">
<g id="Logo | RSHB" clip-path="url(#clip0_848_357)">
<path id="Vector" d="M63.1147 0.944817H40.2253V58.0538H63.1147V0.944817Z" fill="#248341"/>
<path id="Vector_2" d="M34.2665 0.944817H17.3359V58.0538H34.2665V0.944817Z" fill="#A6CE39"/>
<path id="Vector_3" d="M11.9447 0.944817H0.5V58.0538H11.9447V0.944817Z" fill="#FFCB05"/>
<path id="Vector_4" d="M70.4921 4.25543H71.0596C70.965 4.63363 70.7758 4.91729 70.5866 5.20094C70.3029 5.39004 70.0191 5.57915 69.6408 5.57915C69.1679 5.57915 68.695 5.39004 68.4112 5.10639C68.1275 4.72819 67.9383 4.34998 67.9383 3.78267C67.9383 3.21536 68.1275 2.83716 68.4112 2.45895C68.695 2.08075 69.1679 1.9862 69.6408 1.9862C70.0191 1.9862 70.3029 2.08075 70.5866 2.26985C70.8704 2.45896 71.0596 2.7426 71.0596 3.12081H70.5866C70.5866 2.93171 70.3975 2.7426 70.3029 2.64805C70.1137 2.5535 69.9246 2.45895 69.7354 2.45895C69.3571 2.45895 69.0733 2.55351 68.8841 2.83716C68.695 3.02626 68.6004 3.40447 68.6004 3.78267C68.6004 4.16088 68.695 4.44453 68.8841 4.72818C69.0733 5.01184 69.3571 5.10639 69.7354 5.10639C70.0191 5.10639 70.2083 5.01184 70.3029 4.91728C70.3975 4.63363 70.4921 4.44453 70.4921 4.25543ZM67.087 3.68812C67.087 4.34998 67.2762 4.91728 67.7491 5.39004C68.222 5.8628 68.7895 6.0519 69.4516 6.0519C70.1137 6.0519 70.6812 5.8628 71.1541 5.39004C71.6271 4.91728 71.8162 4.34998 71.8162 3.68812C71.8162 3.02626 71.6271 2.45895 71.1541 1.9862C70.6812 1.51344 70.1137 1.32434 69.4516 1.32434C68.7895 1.32434 68.222 1.51344 67.7491 1.9862C67.3708 2.45895 67.087 3.02626 67.087 3.68812ZM69.4516 6.61921C68.6004 6.61921 67.9383 6.33555 67.3708 5.76825C66.8033 5.20094 66.5195 4.53908 66.5195 3.68812C66.5195 2.83716 66.8033 2.1753 67.3708 1.60799C67.9383 1.04068 68.6004 0.757027 69.4516 0.757027C70.2083 0.757027 70.965 1.04068 71.5325 1.60799C72.1 2.1753 72.3837 2.83716 72.3837 3.68812C72.3837 4.53908 72.1 5.20094 71.5325 5.76825C70.965 6.33555 70.3029 6.61921 69.4516 6.61921Z" fill="#248341"/>
</g>
<defs>
<clipPath id="clip0_848_357">
<rect width="72" height="59" fill="white" transform="translate(0.5)"/>
</clipPath>
</defs>
</svg>
